<svg width="102" height="35" viewBox="0 0 102 35" fill="none" xmlns="http://www.w3.org/2000/svg">
<path d="M19.2204 21.5C19.1204 18.8 18.7204 16.2 18.7204 13.5C18.7204 11.3 19.1204 9.09997 18.3204 6.99997C18.3204 6.79997 18.4204 6.49997 18.4204 6.29997C18.6204 5.29997 15.1204 5.79997 14.6204 6.79997C14.3204 7.09997 14.1204 7.39997 14.2204 7.79997C14.2204 7.89997 14.3204 7.99997 14.3204 8.09997C13.6204 11.3 12.7204 14.4 11.7204 17.5C11.3204 18.7 10.8204 19.8 10.4204 21C9.82041 19.9 9.22041 18.8 8.82041 17.6C7.42041 14.2 6.22041 10.7 4.52041 7.39997C4.72041 5.89997 1.32041 5.99997 0.620408 7.39997C-0.179592 9.09997 -0.0795918 10.8 0.220408 12.6C0.520408 14.6 0.620408 16.6 0.620408 18.7C0.620408 22.7 1.02041 26.6 1.02041 30.6C0.620408 31 0.520408 31.5 0.920408 32C1.12041 32.2 1.32041 32.4 1.52041 32.5C2.52041 33.2 5.12041 32.6 5.12041 31.2C5.12041 27.1 4.82041 23 4.72041 18.8C4.72041 18.4 4.72041 18 4.72041 17.6C4.82041 17.7 4.82041 17.9 4.92041 18C5.52041 19.6 6.22041 21.2 7.12041 22.7C8.02041 24.2 8.42041 25.8 8.92041 27.4C8.72041 27.6 8.62041 27.9 8.72041 28.1C8.72041 28.3 8.82041 28.4 9.02041 28.5C9.62041 29 10.8204 28.8 11.5204 28.5C11.8204 28.4 12.1204 28.2 12.3204 28.1C12.6204 27.9 13.2204 27.4 13.0204 26.9C13.0204 26.8 12.9204 26.7 12.9204 26.6C13.4204 25.3 13.6204 24 13.9204 22.7C14.2204 21.3 14.7204 19.9 15.2204 18.6C15.3204 19.2 15.3204 19.8 15.4204 20.5C15.6204 23.1 15.4204 25.6 15.4204 28.1C15.4204 28.9 15.5204 29.7 15.6204 30.6C15.7204 30.9 16.0204 32.4 15.9204 32.5C15.1204 33 15.3204 33.6 16.1204 33.8C17.0204 34 18.2204 33.7 18.9204 33.1C20.1204 32 19.5204 30.3 19.3204 28.9C18.8204 26.5 19.3204 23.9 19.2204 21.5Z" fill="black"/>
<path d="M27.6204 22.2C27.5204 20.2 26.8204 18.3 26.8204 16.3C26.8204 14 27.0204 11.7 26.6204 9.39997C26.5204 8.69997 22.5204 9.49997 22.7204 10.4C23.0204 12.5 22.9204 14.6 22.9204 16.8C22.9204 18.8 23.4204 20.7 23.6204 22.7C23.9204 24.8 23.5204 26.9 23.7204 28.9C23.8204 29.9 24.5204 31.6 23.8204 32.5C23.4204 33 25.3204 32.8 25.4204 32.8C26.2204 32.7 27.2204 32.4 27.7204 31.8C28.4204 31 27.9204 29.4 27.8204 28.4C27.5204 26.4 27.7204 24.2 27.6204 22.2Z" fill="black"/>
<path d="M43.9203 18.9C41.8203 16.1 38.0203 18.1 35.3203 17.4C33.9203 17 33.9203 15.1 33.9203 14C33.9203 12.6 33.8203 11.3 33.6203 9.90003C33.5203 8.80003 33.6203 7.80003 34.3203 7.00004C34.4203 6.90004 35.2203 6.70003 35.1203 6.70003C35.5203 6.60003 35.8203 6.60003 36.2203 6.60003C37.7203 6.50003 40.8203 6.80004 40.2203 9.10004C39.9203 10.1 43.8203 9.50004 44.1203 8.50004C45.3203 3.90004 36.8203 4.80004 34.4203 5.40004C32.2203 6.00004 29.8203 7.20004 29.6203 9.80003C29.5203 11 29.9203 12.2 29.9203 13.4C30.0203 14.8 29.7203 16.2 30.2203 17.5C31.3203 20.5 35.7203 19.1 38.0203 19.2C41.8203 19.5 40.7203 24.7 40.7203 27.1C40.7203 28.4 41.9203 30.5 40.9203 31.6C40.3203 32.3 38.9203 32.3 38.1203 32.4C37.3203 32.5 35.9203 32.7 35.4203 31.9C34.4203 30.5 35.5203 28.1 35.3203 26.5C35.2203 25.6 31.2203 26.4 31.4203 27.5C31.7203 30.1 30.0203 33.6 33.8203 34.1C36.2203 34.4 39.0203 33.9 41.3203 33.2C42.5203 32.8 43.6203 32.3 44.5203 31.4C45.5203 30.5 45.2203 29.1 44.9203 27.9C44.4203 24.8 45.8203 21.4 43.9203 18.9Z" fill="black"/>
<path d="M61.3204 18.7C61.2204 14.9 60.6204 11.2 60.6204 7.39996C60.6204 5.39996 56.6204 6.09996 56.6204 7.69996C56.6204 11.3 57.1204 14.9 57.3204 18.5C57.3204 18.6 57.3204 18.6 57.3204 18.7C55.4204 18.7 53.4204 18.9 51.4204 18.9C51.6204 14.3 50.8204 9.69996 51.0204 4.99996C51.0204 4.39996 47.1204 4.89996 47.1204 5.99996C46.9204 10.5 47.7204 14.9 47.6204 19.4C47.5204 21.5 47.4204 23.7 47.3204 25.8C47.3204 26.9 47.5204 28 47.6204 29.1C47.7204 30.1 48.1204 31.4 47.8204 32.4C47.6204 33.2 51.4204 32.7 51.7204 31.7C52.2204 29.9 51.5204 27.7 51.3204 25.9C51.1204 24.2 51.3204 22.4 51.4204 20.7C53.4204 20.6 55.5204 20.4 57.5204 20.7C57.6204 22.1 57.7204 23.5 57.8204 24.8C57.9204 26 58.0204 27.1 58.0204 28.3C58.0204 29.3 58.1204 30.8 57.8204 31.8C57.0204 33.9 60.9204 33.7 61.5204 32.2C62.2204 30.3 62.0204 28 61.9204 26C61.7204 23.5 61.3204 21.1 61.3204 18.7Z" fill="black"/>
<path d="M78.2205 23.1C77.3205 20.3 75.8205 17.9 74.6205 15.3C75.6205 13.4 76.6205 11.4 77.5205 9.40004C78.3205 7.60004 78.9205 5.60004 80.6205 4.30004C81.2205 3.90004 81.2205 3.40004 80.3205 3.30004C79.4205 3.20004 78.2205 3.50004 77.5205 4.00004C76.1205 5.30004 75.1205 6.70004 74.4205 8.40004C73.5205 10.5 72.5205 12.5 71.5205 14.5C71.4205 14.6 71.4205 14.8 71.3205 14.9C70.8205 15.2 70.5205 15.7 70.7205 16.2C69.9205 17.8 69.1205 19.3 68.2205 20.8C67.9205 15.3 67.2205 9.70004 67.0205 4.20004C67.0205 2.90004 63.0205 3.70004 63.1205 5.20004C63.3205 12.1 64.3205 18.9 64.4205 25.8C64.4205 25.8 64.4205 25.8 64.4205 25.9C64.1205 26.2 64.2205 26.4 64.5205 26.5C64.5205 28.3 64.4205 30 64.3205 31.8C63.8205 32.5 64.8205 32.9 65.4205 32.9H65.5205C66.2205 32.9 68.1205 32.6 68.2205 31.5C68.4205 29.4 68.5205 27.3 68.4205 25.2C70.0205 23.5 71.3205 21.6 72.5205 19.6C73.3205 21.1 74.0205 22.6 74.5205 24.2C75.4205 26.9 76.8205 29.5 77.6205 32.2C78.1205 34 82.1205 32.9 81.5205 31.2C80.5205 28.4 79.1205 25.9 78.2205 23.1Z" fill="black"/>
<path d="M101.72 18.5C101.52 17.7 100.32 17.7 99.4205 17.7C99.4205 17.4 99.4205 17 99.4205 16.7C99.3205 14 99.2205 11.3 99.0205 8.70002C98.8205 6.20002 97.4205 5.40002 95.0205 5.50002C92.6205 5.60002 89.8205 6.00002 87.5205 6.90002C84.9205 7.90002 83.4205 9.80002 82.9205 12.6C82.4205 15.6 83.1205 18.8 83.3205 21.8C83.5205 25.3 83.4205 28.8 83.4205 32.3C83.4205 32.9 87.3205 32.3 87.3205 31.3C87.3205 28.5 87.3205 25.7 87.3205 23C87.3205 22.2 87.2205 21.4 87.2205 20.6C88.6205 20 90.9205 20.6 92.3205 20.7C93.4205 20.8 94.5205 20.5 95.5205 20.4C95.5205 22.7 95.6205 25 95.7205 27.3C95.7205 28.5 96.2205 30.8 95.3205 31.8C94.9205 32.3 96.8205 32.1 96.9205 32.1C97.7205 32 98.7205 31.7 99.2205 31.1C100.12 30 99.7205 27.3 99.6205 26C99.5205 24.1 99.5205 22.2 99.5205 20.3C100.62 20.1 101.92 19.4 101.72 18.5ZM87.1205 18.4C87.0205 17.2 86.9205 15.9 86.8205 14.7C86.6205 12.4 86.9205 9.10002 89.1205 7.70002C89.7205 7.30002 90.8205 7.40002 91.5205 7.30002C92.5205 7.10002 93.5205 6.90002 94.3205 7.50002C95.5205 8.30002 95.2205 11.2 95.2205 12.4C95.2205 14.4 95.4205 16.4 95.5205 18.4C94.9205 18.5 94.4205 18.5 93.8205 18.5C91.5205 18.3 89.2205 17.9 87.1205 18.4Z" fill="black"/>
<path d="M24.2204 6.7C24.7204 6.6 25.2204 6.5 25.7204 6.2C25.8204 6.1 25.9204 6 25.9204 6C26.4204 5.7 26.9204 5.2 26.6204 4.6C26.1204 3.5 26.2204 2.4 26.2204 1.2C26.2204 0.2 25.2204 0 24.4204 0C23.7204 0.1 22.2204 0.6 22.2204 1.5C22.2204 2.5 22.1204 3.5 22.3204 4.5C22.3204 4.6 22.2204 4.7 22.2204 4.9C22.1204 5.1 22.2204 5.3 22.3204 5.5V5.6C22.3204 5.7 22.3204 5.8 22.3204 5.9C22.4204 6.1 22.5204 6.3 22.7204 6.4C23.3204 6.7 23.8204 6.7 24.2204 6.7Z" fill="black"/>
</svg>
