<svg width="768" height="24" viewBox="0 0 768 24" fill="none" xmlns="http://www.w3.org/2000/svg">
<path d="M749.784 -0.00012207C740.142 -0.00012207 740.142 9.88223 730.567 9.88223C720.992 9.88223 720.925 -0.00012207 711.35 -0.00012207C701.776 -0.00012207 701.709 9.88223 692.134 9.88223C682.492 9.88223 682.492 -0.00012207 672.85 -0.00012207C663.209 -0.00012207 663.209 9.88223 653.634 9.88223C643.992 9.88223 643.992 -0.00012207 634.417 -0.00012207C624.776 -0.00012207 624.776 9.88223 615.201 9.88223C605.626 9.88223 605.358 -0.00012207 595.783 -0.00012207C586.142 -0.00012207 586.142 9.88223 576.567 9.88223C566.992 9.88223 566.858 -0.00012207 557.283 -0.00012207C547.642 -0.00012207 547.642 9.88223 538.067 9.88223C528.425 9.88223 528.425 -0.00012207 518.783 -0.00012207C509.142 -0.00012207 509.142 9.88223 499.567 9.88223C489.925 9.88223 489.925 -0.00012207 480.35 -0.00012207C470.776 -0.00012207 470.642 9.88223 461 9.88223C451.358 9.88223 451.358 -0.00012207 441.783 -0.00012207C432.142 -0.00012207 432.142 9.88223 422.567 9.88223C412.925 9.88223 412.925 -0.00012207 403.283 -0.00012207C393.642 -0.00012207 393.642 9.88223 384.067 9.88223C374.425 9.88223 374.425 -0.00012207 364.85 -0.00012207C355.209 -0.00012207 355.209 9.88223 345.634 9.88223C335.992 9.88223 335.992 -0.00012207 326.417 -0.00012207C316.776 -0.00012207 316.776 9.88223 307.134 9.88223C297.492 9.88223 297.492 -0.00012207 287.85 -0.00012207C278.209 -0.00012207 278.209 9.88223 268.567 9.88223C258.925 9.88223 258.925 -0.00012207 249.283 -0.00012207C239.642 -0.00012207 239.642 9.88223 230 9.88223C220.358 9.88223 220.358 -0.00012207 210.717 -0.00012207C201.075 -0.00012207 201.075 9.88223 191.433 9.88223C181.791 9.88223 181.791 -0.00012207 172.15 -0.00012207C162.508 -0.00012207 162.508 9.88223 152.933 9.88223C143.291 9.88223 143.291 -0.00012207 133.65 -0.00012207C124.008 -0.00012207 124.008 9.88223 114.366 9.88223C104.724 9.88223 104.724 -0.00012207 95.0826 -0.00012207C85.4409 -0.00012207 85.4409 9.88223 75.7991 9.88223C66.1574 9.88223 66.1574 -0.00012207 56.5157 -0.00012207C47.1417 -0.00012207 47.1417 9.88223 37.5 9.88223C27.8583 9.88223 27.8583 -0.00012207 18.2835 -0.00012207C8.7087 -0.00012207 8.64174 9.88223 -1 9.88223V23.9999H769V9.88223C759.358 9.88223 759.358 -0.00012207 749.784 -0.00012207Z" fill="white"/>
</svg>
